<svg version="1.2" xmlns="http://www.w3.org/2000/svg" viewBox="0 0 503 528" width="503" height="528">
	<style>
		.s0 { fill: #ebe2e3 } 
		.s1 { fill: #62424a } 
		.s2 { fill: #e02e55 } 
		.s3 { fill: #914f4a } 
		.s4 { opacity: .2;fill: #ffffff } 
		.s5 { fill: #f4366b } 
		.s6 { fill: #ffffff } 
	</style>
	<g id="OBJECT">
		<g>
			<g>
				<path class="s0" d="m447.25 335.68c0-3.7 3-6.71 6.71-6.71 3.7 0 6.71 3.01 6.71 6.71v2.01l17.57-7.53v-40.64l-220.53 94.51v40.64l57.9-24.82v-6.73c0-3.7 3-6.71 6.71-6.71 2.75 0 5.1 1.66 6.14 4.03l118.79-51.83z"/>
				<path fill-rule="evenodd" class="s1" d="m257.71 384.03v40.64z"/>
				<path class="s1" d="m10.35 279.36q0-0.01 0-0.02v51.75q0-0.01 0-0.01z"/>
				<path class="s1" d="m10.35 331.1v0.02q0 0 0-0.01 0-0.01 0-0.01z"/>
				<path class="s2" d="m478.24 195.3l-220.53 94.51v79.62l220.53-94.51zm-162.63 103.93c-3.7 0-6.71-3-6.71-6.71 0-3.7 3-6.71 6.71-6.71 3.7 0 6.71 3.01 6.71 6.71 0 3.71-3.01 6.71-6.71 6.71zm52.46-28.39c-3.7 0-6.71-3-6.71-6.71 0-3.7 3.01-6.71 6.71-6.71 3.7 0 6.71 3.01 6.71 6.71 0 3.71-3 6.71-6.71 6.71zm13.36 39.35c-3.7 0-6.71-3-6.71-6.71 0-3.7 3.01-6.7 6.71-6.7 3.7 0 6.71 3 6.71 6.7 0 3.71-3.01 6.71-6.71 6.71zm60.46-52.76c-3.71 0-6.71-3.01-6.71-6.71 0-3.71 3-6.71 6.71-6.71 3.7 0 6.7 3 6.7 6.71 0 3.7-3 6.71-6.7 6.71z"/>
				<path class="s2" d="m361.81 422.69c-3.56 0-6.46 2.89-6.46 6.45v21.71c0 10.96-8.91 19.87-19.87 19.87-9.5 0-17.46-6.7-19.41-15.62q-0.45-1.14-0.46-2.44v-38.21l-57.9 24.81v69.9l110.56-47.38v-32.64c0-3.56-2.9-6.45-6.46-6.45zm-75.15 47.36c-3.7 0-6.71-3-6.71-6.71 0-3.7 3-6.71 6.71-6.71 3.7 0 6.71 3.01 6.71 6.71 0 3.71-3.01 6.71-6.71 6.71z"/>
				<path class="s2" d="m460.67 422.18l7.32-3.14c6.22-2.67 10.25-8.77 10.25-15.54v-58.75l-17.57 7.53z"/>
				<path class="s2" d="m420.92 383.57c0-4.87-2.59-8.13-6.45-8.13-3.56 0-6.46 2.89-6.46 6.45v62.86l14.17-6.08c-0.8-2.18-1.26-4.52-1.26-6.95z"/>
				<path class="s3" d="m441.89 244.01c-3.71 0-6.71 3-6.71 6.71 0 3.7 3 6.71 6.71 6.71 3.7 0 6.7-3.01 6.7-6.71 0-3.71-3-6.71-6.7-6.71z"/>
				<path class="s3" d="m381.43 296.78c-3.7 0-6.71 3-6.71 6.7 0 3.71 3.01 6.71 6.71 6.71 3.7 0 6.71-3 6.71-6.71 0-3.7-3.01-6.7-6.71-6.7z"/>
				<path fill-rule="evenodd" class="s3" d="m356.61 284.23c-3.71 0-6.71-3-6.71-6.71 0-3.71 3-6.71 6.71-6.71 3.71 0 6.71 3 6.71 6.71 0 3.71-3 6.71-6.71 6.71z"/>
				<path class="s3" d="m286.66 456.63c-3.7 0-6.71 3.01-6.71 6.71 0 3.71 3 6.71 6.71 6.71 3.7 0 6.71-3 6.71-6.71 0-3.7-3.01-6.71-6.71-6.71z"/>
				<path fill-rule="evenodd" class="s3" d="m368.07 270.84c-3.71 0-6.71-3-6.71-6.71 0-3.71 3-6.71 6.71-6.71 3.71 0 6.71 3 6.71 6.71 0 3.71-3 6.71-6.71 6.71z"/>
				<path class="s0" d="m447.25 347.91q0-0.02 0-0.03v-9.27l-118.79 51.83q0.55 1.24 0.57 2.68v11.1q0 0.02 0 0.04v46.59c0 3.56 2.89 6.46 6.45 6.46 3.56 0 6.46-2.9 6.46-6.46v-21.71c0-10.95 8.91-19.87 19.87-19.87 10.96 0 19.87 8.92 19.87 19.87v37.02q0 0.01 0 0.01v9.6c0 3.56 2.9 6.46 6.46 6.46 3.56 0 6.45-2.9 6.45-6.46v-93.88c0-10.95 8.92-19.87 19.88-19.87 11.32 0 19.87 9.27 19.87 21.55v48.15c0 1.45 0.53 2.85 1.37 4.01 0.91 0.51 1.71 1.21 2.31 2.11 0.77 0.43 1.61 0.7 2.47 0.74 1.79 0.07 3.48-0.55 4.77-1.78 0.71-0.69 1.23-1.52 1.56-2.42-0.42-1.58-0.25-3.21 0.43-4.62 0 0 0-81.85 0-81.85z"/>
				<path fill-rule="evenodd" class="s0" d="m251.05 278.07l227.19-97.37-227.19 97.37z"/>
				<path class="s4" d="m211.47 203.79q-0.29 0.44-0.52 0.94 0.23-0.5 0.52-0.94z"/>
				<path class="s4" d="m176.62 188.59q-0.13 0.63-0.39 1.26 0.26-0.63 0.39-1.26z"/>
				<path class="s5" d="m244.29 289.81l-55.39-23.73v79.61l55.39 23.74zm-34.96 35.12c-3.7 0-6.7-3.01-6.7-6.71 0-3.71 3-6.71 6.7-6.71 3.71 0 6.71 3 6.71 6.71 0 3.7-3 6.71-6.71 6.71z"/>
				<path class="s4" d="m244.29 289.81l-55.39-23.73v79.61l55.39 23.74zm-34.96 35.12c-3.7 0-6.7-3.01-6.7-6.71 0-3.71 3-6.71 6.7-6.71 3.71 0 6.71 3 6.71 6.71 0 3.7-3 6.71-6.71 6.71z"/>
				<path class="s5" d="m149.16 298.29c0-4.86-2.59-8.13-6.46-8.13-3.56 0-6.45 2.9-6.45 6.46v26.51l12.91 5.53z"/>
				<path class="s4" d="m149.16 298.29c0-4.86-2.59-8.13-6.46-8.13-3.56 0-6.45 2.9-6.45 6.46v26.51l12.91 5.53z"/>
				<path fill-rule="evenodd" class="s5" d="m23.76 274.92l20.09 8.61v-79.62l-20.09-8.61z"/>
				<path fill-rule="evenodd" class="s4" d="m23.76 274.92l20.09 8.61v-79.62l-20.09-8.61z"/>
				<path class="s5" d="m96.5 266.06c0-3.56-2.89-6.46-6.45-6.46-3.56 0-6.46 2.9-6.46 6.46v34.5l12.91 5.53z"/>
				<path class="s4" d="m96.5 266.06c0-3.56-2.89-6.46-6.45-6.46-3.56 0-6.46 2.9-6.46 6.46v34.5l12.91 5.53z"/>
				<path class="s6" d="m136.25 359.6c0 5.05-1.91 9.65-5.03 13.16l113.07 48.46v-37.19l-57.79-24.77c-0.98 1.81-2.23 3.48-3.73 4.92-3.96 3.78-9.15 5.72-14.63 5.49-10.47-0.46-18.98-9.55-18.98-20.26v-6.15l-12.91-5.53z"/>
				<path class="s4" d="m136.25 359.6c0 5.05-1.91 9.65-5.03 13.16l113.07 48.46v-37.19l-57.79-24.77c-0.98 1.81-2.23 3.48-3.73 4.92-3.96 3.78-9.15 5.72-14.63 5.49-10.47-0.46-18.98-9.55-18.98-20.26v-6.15l-12.91-5.53z"/>
				<path class="s6" d="m63.72 323.78c-10.96 0-19.87-8.91-19.87-19.87v-5.78l-20.09-8.61v37.18l72.74 31.18v-37.19l-15.67-6.72c-3.46 5.86-9.83 9.81-17.11 9.81z"/>
				<path class="s4" d="m63.72 323.78c-10.96 0-19.87-8.91-19.87-19.87v-5.78l-20.09-8.61v37.18l72.74 31.18v-37.19l-15.67-6.72c-3.46 5.86-9.83 9.81-17.11 9.81z"/>
				<path fill-rule="evenodd" class="s1" d="m131.19 372.76l113.06 48.46z"/>
				<path fill-rule="evenodd" class="s4" d="m131.19 372.76l113.06 48.46z"/>
				<path fill-rule="evenodd" class="s1" d="m80.8 313.98l15.67 6.72z"/>
				<path fill-rule="evenodd" class="s4" d="m80.8 313.98l15.67 6.72z"/>
				<path fill-rule="evenodd" class="s1" d="m23.73 289.52l20.09 8.61z"/>
				<path fill-rule="evenodd" class="s4" d="m23.73 289.52l20.09 8.61z"/>
				<path fill-rule="evenodd" class="s1" d="m136.21 337.73l12.92 5.54z"/>
				<path fill-rule="evenodd" class="s4" d="m136.21 337.73l12.92 5.54z"/>
				<path class="s5" d="m244.29 509.16v-73.34l-133.16-57.07q-2.65-0.74-4.95-2.13l-82.42-35.32v62.2q0.01 2.65 0.79 5.09c1.22 3.88 3.81 7.22 7.34 9.36q1.01 0.62 2.12 1.09l157.71 67.59zm-170.92-111.03c-3.7 0-6.71-3.01-6.71-6.71 0-3.7 3.01-6.71 6.71-6.71 3.71 0 6.71 3.01 6.71 6.71 0 3.7-3 6.71-6.71 6.71zm43 48.45c-3.7 0-6.7-3-6.7-6.71 0-3.7 3-6.71 6.7-6.71 3.71 0 6.71 3.01 6.71 6.71 0 3.71-3 6.71-6.71 6.71zm71.48 5.37c0-3.71 3-6.71 6.7-6.71 3.71 0 6.71 3 6.71 6.71 0 3.7-3 6.71-6.71 6.71-3.7 0-6.7-3.01-6.7-6.71z"/>
				<path class="s4" d="m244.29 509.16v-73.34l-133.16-57.07q-2.65-0.74-4.95-2.13l-82.42-35.32v62.2q0.01 2.65 0.79 5.09c1.22 3.88 3.81 7.22 7.34 9.36q1.01 0.62 2.12 1.09l157.71 67.59zm-170.92-111.03c-3.7 0-6.71-3.01-6.71-6.71 0-3.7 3.01-6.71 6.71-6.71 3.71 0 6.71 3.01 6.71 6.71 0 3.7-3 6.71-6.71 6.71zm43 48.45c-3.7 0-6.7-3-6.7-6.71 0-3.7 3-6.71 6.7-6.71 3.71 0 6.71 3.01 6.71 6.71 0 3.71-3 6.71-6.71 6.71zm71.48 5.37c0-3.71 3-6.71 6.7-6.71 3.71 0 6.71 3 6.71 6.71 0 3.7-3 6.71-6.71 6.71-3.7 0-6.7-3.01-6.7-6.71z"/>
				<path class="s3" d="m201.26 451.95c0-3.71-3-6.71-6.71-6.71-3.7 0-6.7 3-6.7 6.71 0 3.7 3 6.7 6.7 6.7 3.71 0 6.71-3 6.71-6.7z"/>
				<path class="s4" d="m201.26 451.95c0-3.71-3-6.71-6.71-6.71-3.7 0-6.7 3-6.7 6.71 0 3.7 3 6.7 6.7 6.7 3.71 0 6.71-3 6.71-6.7z"/>
				<path class="s3" d="m116.38 433.16c-3.71 0-6.71 3.01-6.71 6.71 0 3.7 3 6.71 6.71 6.71 3.7 0 6.7-3 6.7-6.71 0-3.7-3-6.71-6.7-6.71z"/>
				<path class="s4" d="m116.38 433.16c-3.71 0-6.71 3.01-6.71 6.71 0 3.7 3 6.71 6.71 6.71 3.7 0 6.7-3 6.7-6.71 0-3.7-3-6.71-6.7-6.71z"/>
				<path class="s3" d="m209.33 311.51c-3.7 0-6.7 3.01-6.7 6.71 0 3.71 3 6.71 6.7 6.71 3.71 0 6.71-3 6.71-6.71 0-3.7-3-6.71-6.71-6.71z"/>
				<path class="s4" d="m209.33 311.51c-3.7 0-6.7 3.01-6.7 6.71 0 3.71 3 6.71 6.7 6.71 3.71 0 6.71-3 6.71-6.71 0-3.7-3-6.71-6.71-6.71z"/>
				<path class="s3" d="m73.37 384.71c-3.7 0-6.7 3-6.7 6.71 0 3.7 3 6.71 6.7 6.71 3.71 0 6.71-3.01 6.71-6.71 0-3.71-3-6.71-6.71-6.71z"/>
				<path class="s4" d="m73.37 384.71c-3.7 0-6.7 3-6.7 6.71 0 3.7 3 6.71 6.7 6.71 3.71 0 6.71-3.01 6.71-6.71 0-3.71-3-6.71-6.71-6.71z"/>
				<path fill-rule="evenodd" class="s0" d="m251 278.09l0.05-0.02z"/>
				<path fill-rule="evenodd" class="s4" d="m251 278.09l0.05-0.02z"/>
				<path class="s6" d="m357.84 88.33q1.26 0.53 2.5 1.08c3.86 1.76 8.02 3.28 12.36 4.51l44.82 12.75c2.67 0.76 4.61 3.11 4.84 5.88 0.24 2.78-1.27 5.41-3.78 6.62l-7.93 3.81c-14.61 7.01-33.29 10.65-52 10.65-7.34 0-14.69-0.57-21.8-1.71q0.54 1.94 0.84 3.91 0.46 3.15 2.16 6.12l14.81 25.94c1.21 2.11 1.18 4.7-0.07 6.78-1.21 2.02-3.4 3.26-5.75 3.26q-0.1 0-0.19-0.01l-10.64-0.3c-28.79-0.83-53.69-9.96-66.4-23.85-3.04 2.81-6.51 5.47-10.4 7.91-3.13 1.96-5.79 4.03-7.91 6.16l-23.86 23.94c-1.29 1.3-3.02 1.98-4.75 1.98-1.18 0-2.37-0.31-3.43-0.95l-7.12-4.23c-12.72-7.57-20.48-17.66-21.86-28.42-0.55-4.31-0.09-8.58 1.34-12.69q-6.43 0.78-12.98 1.07c-5.2 0.22-10.26 0.72-15.05 1.5l-47.24 7.71 54.35 23.29q0.6 0.26 1.13 0.62 0.16 0.13 0.32 0.26 0.34 0.25 0.63 0.54 0.17 0.18 0.33 0.36 0.24 0.28 0.45 0.58 0.15 0.21 0.28 0.44 0.17 0.3 0.31 0.62 0.12 0.24 0.21 0.49 0.11 0.32 0.19 0.65 0.07 0.26 0.11 0.53 0.05 0.34 0.07 0.69 0.02 0.27 0.03 0.53-0.02 0.41-0.09 0.82-0.02 0.21-0.05 0.42-0.13 0.64-0.4 1.26c-1.09 2.54-3.56 4.06-6.16 4.06q-1.34 0.01-2.64-0.54l-143.54-61.52-0.12 0.09v48.76l20.35 8.73c0.79-2.84 3.36-4.93 6.44-4.93 3.71 0 6.71 3 6.71 6.71v112.7c0 3.56 2.9 6.46 6.46 6.46 3.56 0 6.45-2.9 6.45-6.46v-37.85c0-10.96 8.92-19.87 19.88-19.87 10.95 0 19.87 8.91 19.87 19.87v93.54c0 3.56 2.89 6.46 6.45 6.46 3.56 0 6.46-2.9 6.46-6.46v-62.98c0-10.96 8.91-19.87 19.87-19.87 11.33 0 19.87 9.26 19.87 21.54v51.12c0 3.45 2.94 6.72 6.16 6.86 1.79 0.07 3.48-0.56 4.76-1.78 1.29-1.23 2-2.89 2-4.67v-103.01c0-3.7 3-6.71 6.7-6.71 3.71 0 6.71 3.01 6.71 6.71v4.67l62.1 26.61 0.05-0.02v-49.47q-0.02 0-0.04 0 0 0-0.01 0 0 0 0 0-0.01 0-0.01 0 0 0-0.01 0-0.59-0.01-1.17-0.12-0.17-0.03-0.34-0.07-0.48-0.11-0.94-0.3-0.09-0.02-0.18-0.05l-33.88-14.52c-3.4-1.46-4.98-5.41-3.52-8.81q0.22-0.5 0.52-0.94 0.29-0.46 0.66-0.86 0.05-0.06 0.1-0.12 0.33-0.36 0.72-0.66 0.1-0.08 0.2-0.16 0.36-0.26 0.74-0.47 0.16-0.09 0.33-0.17 0.35-0.17 0.72-0.3 0.23-0.08 0.47-0.14 0.33-0.09 0.67-0.15 0.31-0.04 0.62-0.06 0.29-0.02 0.59-0.02 0.38 0.01 0.77 0.08 0.23 0.02 0.46 0.06 0.63 0.13 1.24 0.39l31.24 13.38 81.48-34.92c3.4-1.46 7.35 0.12 8.81 3.53l37.96-16.27c-1.46-3.41 0.12-7.35 3.52-8.81l78.35-33.58-94.15-40.35q-4.27 2.26-9.13 4.14z"/>
				<path class="s0" d="m337.76 192l-84.12 36.06q-0.09 0.03-0.18 0.05-0.46 0.19-0.94 0.3-0.17 0.04-0.34 0.07-0.56 0.11-1.13 0.12v49.47l227.19-97.37v-48.77l-0.04-0.07-0.1-0.04 0.01 0.03-90.05 38.6c-3.41 1.46-7.35-0.12-8.81-3.52l-37.96 16.26c1.46 3.41-0.12 7.35-3.52 8.81z"/>
				<path class="s6" d="m109.27 150.67l0.58-5.69c1.48-14.72 14.33-27.48 34.32-35.18q-1.27-0.53-2.51-1.08c-3.86-1.76-8.01-3.28-12.36-4.51l-24.63-7.01-63.79 27.34 68.97 29.56c-0.48-1.06-0.7-2.24-0.58-3.43z"/>
				<path class="s3" d="m252.52 228.41q0.48-0.11 0.94-0.3 0.09-0.02 0.18-0.05l84.13-36.06c3.4-1.46 4.98-5.4 3.52-8.8-1.46-3.41-5.4-4.99-8.81-3.53l-81.48 34.92-31.24-13.38q-0.61-0.26-1.23-0.39-0.23-0.04-0.46-0.06-0.39-0.07-0.78-0.08-0.3 0-0.59 0.02-0.31 0.02-0.61 0.06-0.34 0.06-0.67 0.15-0.24 0.06-0.47 0.14-0.37 0.13-0.72 0.3-0.17 0.08-0.34 0.17-0.38 0.21-0.73 0.47-0.11 0.08-0.21 0.16-0.38 0.3-0.72 0.66-0.05 0.06-0.1 0.12-0.36 0.4-0.66 0.86-0.29 0.44-0.52 0.94c-1.46 3.4 0.12 7.35 3.53 8.81l33.88 14.52q0.09 0.03 0.18 0.05 0.46 0.18 0.94 0.3 0.17 0.04 0.34 0.07 0.57 0.11 1.16 0.12 0.01 0 0.02 0 0 0 0 0 0 0 0 0 0.01 0 0.02 0 0.01 0 0.03 0 0.57-0.01 1.13-0.12 0.17-0.03 0.34-0.07z"/>
				<path class="s3" d="m491.65 185.08v-53.15c0-3.65-1.48-7.06-4.01-9.57-0.69-0.94-1.61-1.74-2.76-2.23l-58.86-25.23-45.99-19.71c5.5-5.01 9.32-10.71 11.1-16.85q0.75-2.55 1.02-5.19l0.57-5.68c0.21-2.08-0.55-4.13-2.07-5.56-1.52-1.43-3.62-2.07-5.68-1.73l-9.66 1.57-38.9 6.34c-4.78 0.78-9.85 1.29-15.05 1.51q-0.46 0.02-0.93 0.05l-10.71-4.59q0.45-3.51 0-7.09c-1.38-10.75-9.14-20.85-21.86-28.41l-7.12-4.24c-2.64-1.57-6.01-1.15-8.18 1.03l-16.77 16.83c-6.01-0.87-12.23-0.09-17.88 2.33l-20.33 8.71c-13.64-8.07-32.57-13.1-53.59-13.7l-10.64-0.31c-2.35-0.06-4.7 1.17-5.94 3.25-1.25 2.08-1.28 4.68-0.07 6.78l14.81 25.95q0.42 0.72 0.76 1.46l-16.15 6.92c-19.83-0.47-39.91 3.15-55.41 10.59l-3.71 1.78-4.22 2.02c-2.44 1.17-3.91 3.69-3.78 6.37q0 0.12 0 0.25c0.23 2.68 2.05 4.95 4.59 5.79l-17.5 7.5-49.21 21.09q-1.3 0.57-2.21 1.54c-3.12 2.55-4.96 6.35-4.96 10.43v53.17q0 0.02 0 0.03v94.17q0 0.01 0 0.01v0.03q0 0.01 0 0.02v51.72q0 0 0 0.01 0 0.01 0 0.01 0 0 0 0.01 0 0.01 0 0.01v72.38c0 3.04 0.45 6 1.3 8.8 2.34 7.73 7.7 14.3 15.03 18.1q1 0.53 2.05 0.97l137.27 58.83 82.36 35.3q0.1 0.03 0.19 0.06 0.46 0.18 0.92 0.29 0.17 0.04 0.33 0.07 0.6 0.12 1.2 0.12 0.61 0 1.2-0.12 0.16-0.03 0.32-0.07 0.48-0.11 0.94-0.29 0.09-0.03 0.18-0.06l114.66-49.14c0.31 10.68 9.08 19.28 19.84 19.28 10.96 0 19.87-8.91 19.87-19.87v-16.43l23.18-9.93c2.61 1.5 5.57 2.43 8.71 2.57 5.49 0.24 10.68-1.71 14.63-5.49 2.69-2.57 4.57-5.87 5.49-9.44l13.26-5.68c11.16-4.78 18.37-15.72 18.37-27.87v-68.94q0-0.02 0-0.04v-55.14q0-0.02 0-0.04v-94.22q0-0.01 0-0.04zm-233.94 184.35v-79.62l220.53-94.51v79.62zm203.41-244.89l-78.35 33.58c-3.4 1.46-4.98 5.4-3.52 8.81 1.46 3.4 5.4 4.98 8.81 3.52l90.05-38.6-0.01-0.03 0.1 0.04 0.03 0.07v48.77l-227.18 97.37-0.05 0.02-62.1-26.61v-4.67c0-3.7-3-6.71-6.71-6.71-3.7 0-6.7 3.01-6.7 6.71v103.01c0 1.78-0.71 3.43-2 4.67-1.28 1.22-2.97 1.85-4.76 1.78-3.22-0.14-6.16-3.41-6.16-6.86v-51.12c0-12.28-8.54-21.54-19.87-21.54-10.95 0-19.87 8.91-19.87 19.87v62.98c0 3.56-2.9 6.46-6.46 6.46-3.56 0-6.45-2.9-6.45-6.46v-93.54c0-10.96-8.92-19.87-19.87-19.87-10.96 0-19.87 8.91-19.87 19.87v37.85c0 3.56-2.9 6.46-6.46 6.46-3.56 0-6.46-2.9-6.46-6.46v-112.71c0-3.7-3-6.7-6.71-6.7-3.08 0-5.65 2.09-6.43 4.93l-20.36-8.73v-48.77l0.12-0.08 143.54 61.52q1.3 0.55 2.64 0.54c2.6 0 5.08-1.52 6.17-4.06q0.26-0.63 0.39-1.26 0.03-0.21 0.05-0.42 0.07-0.41 0.09-0.82-0.01-0.27-0.03-0.53-0.01-0.35-0.06-0.69-0.05-0.27-0.12-0.53-0.08-0.33-0.19-0.65-0.09-0.25-0.2-0.5-0.15-0.31-0.32-0.61-0.13-0.23-0.28-0.44-0.21-0.3-0.45-0.58-0.16-0.19-0.33-0.36-0.29-0.29-0.63-0.54-0.15-0.14-0.32-0.26-0.52-0.36-1.13-0.62l-54.35-23.3 47.24-7.7c4.79-0.78 9.86-1.29 15.05-1.51q6.55-0.28 12.98-1.06c-1.43 4.11-1.89 8.37-1.34 12.69 1.38 10.76 9.14 20.85 21.86 28.41l7.12 4.24c1.07 0.64 2.25 0.94 3.43 0.94 1.73 0 3.46-0.67 4.75-1.97l23.86-23.94c2.12-2.13 4.78-4.2 7.91-6.16 3.9-2.44 7.36-5.1 10.4-7.91 12.71 13.89 37.61 23.02 66.4 23.85l10.64 0.3q0.09 0 0.19 0c2.35 0 4.54-1.23 5.75-3.25 1.25-2.08 1.28-4.67 0.07-6.78l-14.81-25.94q-1.7-2.97-2.16-6.12-0.3-1.97-0.83-3.91c7.1 1.14 14.45 1.71 21.79 1.71 18.71 0 37.39-3.65 52-10.66l7.93-3.8c2.52-1.21 4.02-3.84 3.78-6.62-0.23-2.78-2.16-5.12-4.84-5.88l-44.82-12.75c-4.34-1.23-8.5-2.75-12.36-4.51q-1.23-0.55-2.5-1.08 4.86-1.88 9.14-4.14zm-429.23 293.41c-3.53-2.14-6.12-5.49-7.34-9.36q-0.78-2.44-0.79-5.09v-62.2l82.42 35.32q2.3 1.39 4.95 2.13l133.16 57.07v73.34l-52.57-22.53-157.71-67.59q-1.11-0.47-2.12-1.09zm64.61-97.26v37.19l-72.74-31.18v-37.18l20.09 8.61v5.78c0 10.96 8.91 19.87 19.87 19.87 7.28 0 13.64-3.95 17.1-9.81zm-12.91-20.13v-34.5c0-3.56 2.9-6.45 6.46-6.45 3.56 0 6.45 2.89 6.45 6.45v40.03zm-39.74-17.03l-20.08-8.61v-79.61l20.08 8.6zm105.31 59.74v6.14c0 10.72 8.52 19.81 18.98 20.27 5.48 0.23 10.68-1.71 14.63-5.49 1.51-1.44 2.76-3.11 3.73-4.92l57.8 24.77v37.18l-113.07-48.45c3.11-3.51 5.02-8.11 5.02-13.16v-21.88zm-12.91-20.13v-26.51c0-3.56 2.89-6.46 6.45-6.46 3.87 0 6.46 3.27 6.46 8.14v30.36zm52.66 22.57v-79.62l55.38 23.74v79.62zm25.58-221.26c-3.79 2.37-7.19 4.96-10.17 7.69q-2.81 0.63-5.76 1.12c-6 0.99-12.21 1.62-18.48 1.89-5.72 0.24-11.32 0.8-16.64 1.67l-39.6 6.45c3.66-11.77 21.27-22.24 44.57-26.09 5.99-0.99 12.21-1.63 18.48-1.89 5.73-0.24 11.33-0.81 16.64-1.67l7.1-1.16c2.24 3.39 4.88 6.49 7.86 9.21q-1.84 1.42-4 2.78zm7.12 11.37q4.74-2.98 8.43-6.31c6.4 3.12 13.58 4.87 21.17 4.87 3.68 0 7.25-0.42 10.7-1.2q0.15 0.64 0.26 1.29 0.58 3.93 2.11 7.74-0.18 0.2-0.37 0.41c-2.69 2.72-5.99 5.32-9.81 7.7-3.99 2.5-7.45 5.21-10.29 8.06l-20.17 20.25-2.63-1.57c-9.1-5.41-14.57-12.01-15.41-18.59-0.66-5.08 1.43-10.11 6.2-14.94 2.69-2.73 5.99-5.32 9.81-7.71zm84.74-13.02c4.37 1.99 9.08 3.75 14.03 5.28q0.64 0.89 1.18 1.8c1.51 2.61 2.47 5.28 2.86 7.92 0.56 3.75 1.83 7.39 3.79 10.82l8.89 15.56c-27.2-1.06-51.27-10.74-58.8-23.74-1.51-2.61-2.47-5.28-2.86-7.93-0.21-1.38-0.54-2.74-0.94-4.09 5.41-2.97 10.2-6.94 14.12-11.67l5.37 1.53c4.34 1.23 8.5 2.75 12.36 4.52zm-10.47-17.93c1.7-3.97 2.88-8.21 3.46-12.64 13.57-0.9 27.62 0.33 40.15 3.86 5.48 1.55 10.62 3.41 15.29 5.54 4.48 2.04 9.27 3.8 14.26 5.21l26.93 7.66c-20.52 7-46.92 7.78-68.76 1.63-5.47-1.55-10.62-3.41-15.29-5.54-4.48-2.04-9.27-3.79-14.25-5.21zm7.58-39.96c6-1 12.21-1.63 18.47-1.9 5.74-0.24 11.34-0.8 16.64-1.67l39.61-6.45c-3.66 11.76-21.25 22.22-44.52 26.08-11.08-2.13-22.85-2.82-34.39-2.11-0.57-4-1.64-7.84-3.13-11.47q0.8-0.67 1.56-1.37 2.81-0.63 5.76-1.11zm-25.08-45.38l2.63 1.57c9.09 5.41 14.57 12.01 15.41 18.59 0.65 5.09-1.43 10.11-6.2 14.94q-0.5 0.49-1.02 0.97c-7.18-9.01-17.48-15.41-29.26-17.56zm-27.17 31.12c11.37 0 21.49 5.43 27.92 13.83 4.53 5.92 7.23 13.31 7.23 21.32 0 19.39-15.77 35.16-35.15 35.16-8.02 0-15.41-2.7-21.33-7.23-8.4-6.43-13.83-16.56-13.83-27.93 0-19.38 15.77-35.15 35.16-35.15zm-33.51 0.04c-7.57 7.22-12.82 16.85-14.49 27.66q-3.92-1.35-7.54-2.99c-4.37-1.99-9.08-3.75-14.03-5.28q-0.64-0.89-1.18-1.81c-1.51-2.61-2.47-5.27-2.86-7.92-0.56-3.75-1.83-7.38-3.79-10.81l-8.89-15.56c22.02 0.86 41.98 7.36 52.78 16.71zm-42.88 31.34c5.46 1.54 10.61 3.4 15.29 5.53 4.09 1.87 8.46 3.49 12.99 4.83q0.52 3.83 1.61 7.44l-3.34 0.54c-4.79 0.78-9.85 1.29-15.05 1.51-5.96 0.25-11.87 0.83-17.63 1.69q-3.13-0.67-6.17-1.51c-5.46-1.54-10.6-3.4-15.28-5.53-4.47-2.04-9.27-3.8-14.26-5.22l-26.93-7.66c20.52-7 46.92-7.77 68.77-1.62zm-70.14 15.18l24.63 7.01c4.35 1.23 8.5 2.75 12.36 4.51q1.24 0.55 2.51 1.08c-19.98 7.7-32.84 20.45-34.32 35.18l-0.58 5.68c-0.12 1.19 0.1 2.37 0.58 3.44l-68.97-29.56zm263.6 364.58l-110.56 47.38v-69.9l57.9-24.82v38.22q0.01 1.3 0.46 2.44c1.95 8.92 9.91 15.62 19.41 15.62 10.96 0 19.87-8.91 19.87-19.87v-21.71c0-3.56 2.9-6.46 6.46-6.46 3.56 0 6.46 2.9 6.46 6.46 0 0 0 32.64 0 32.64zm78.56-27.4c-0.34 0.9-0.85 1.73-1.57 2.42-1.29 1.22-2.97 1.85-4.76 1.78-0.87-0.04-1.71-0.32-2.48-0.75-0.6-0.9-1.4-1.6-2.31-2.1-0.84-1.17-1.37-2.57-1.37-4.02v-48.14c0-12.29-8.54-21.55-19.87-21.55-10.96 0-19.87 8.91-19.87 19.87v93.88c0 3.56-2.9 6.45-6.46 6.45-3.56 0-6.46-2.89-6.46-6.45v-9.6q0-0.01 0-0.01v-37.02c0-10.96-8.91-19.87-19.87-19.87-10.96 0-19.87 8.91-19.87 19.87v21.71c0 3.56-2.9 6.46-6.46 6.46-3.56 0-6.45-2.9-6.45-6.46v-46.59q0-0.02 0-0.04v-11.1c0-0.96-0.21-1.86-0.57-2.68-1.03-2.37-3.39-4.03-6.14-4.03-3.71 0-6.71 3-6.71 6.71v6.73l-57.9 24.82v-40.64l220.53-94.52v40.64l-17.57 7.53v-2c0-3.71-3-6.71-6.71-6.71-3.7 0-6.71 3-6.71 6.71v2.92 9.27q0 0.02 0 0.04v81.85c-0.67 1.41-0.85 3.03-0.42 4.62zm-38.82 10.36v-62.85c0-3.56 2.9-6.46 6.46-6.46 3.86 0 6.45 3.27 6.45 8.14v48.14c0 2.44 0.46 4.78 1.26 6.96zm70.23-41.25c0 6.78-4.02 12.88-10.25 15.54l-7.32 3.14v-69.9l17.57-7.53z"/>
				<path class="s5" d="m299.26 78.84c11.54-0.7 23.31-0.01 34.39 2.12 23.28-3.86 40.86-14.32 44.52-26.09l-39.6 6.46c-5.31 0.87-10.91 1.43-16.65 1.67-6.26 0.26-12.47 0.9-18.47 1.89q-2.95 0.49-5.76 1.12-0.76 0.69-1.56 1.37c1.49 3.62 2.56 7.47 3.13 11.46z"/>
				<path class="s5" d="m289.19 55.59q0.52-0.48 1.02-0.97c4.77-4.83 6.86-9.86 6.2-14.94-0.84-6.58-6.31-13.18-15.41-18.59l-2.63-1.57-18.44 18.51c11.78 2.14 22.08 8.55 29.26 17.56z"/>
				<path class="s5" d="m177.59 60.34c0.39 2.65 1.35 5.32 2.86 7.93q0.54 0.91 1.18 1.8c4.95 1.53 9.66 3.29 14.03 5.28q3.62 1.64 7.54 2.99c1.67-10.8 6.92-20.43 14.49-27.66-10.8-9.34-30.76-15.85-52.78-16.71l8.89 15.56c1.96 3.43 3.23 7.06 3.79 10.81z"/>
				<path class="s5" d="m147.23 96.52c4.68 2.13 9.82 3.99 15.28 5.53q3.04 0.84 6.17 1.51c5.76-0.86 11.67-1.44 17.63-1.69 5.2-0.22 10.26-0.73 15.05-1.51l3.34-0.54q-1.09-3.61-1.61-7.43c-4.53-1.35-8.9-2.96-12.99-4.83-4.68-2.13-9.82-4-15.29-5.54-21.85-6.15-48.25-5.38-68.77 1.62l26.93 7.67c4.99 1.42 9.79 3.17 14.26 5.21z"/>
				<path class="s5" d="m210.62 112.44l-7.11 1.16c-5.31 0.87-10.9 1.43-16.64 1.67-6.27 0.27-12.48 0.91-18.47 1.89-23.3 3.86-40.91 14.33-44.57 26.1l39.6-6.46c5.32-0.86 10.92-1.43 16.64-1.67 6.26-0.26 12.48-0.9 18.48-1.89q2.94-0.49 5.76-1.11c2.98-2.74 6.37-5.32 10.17-7.7q2.15-1.35 4-2.77c-2.99-2.73-5.62-5.83-7.86-9.22z"/>
				<path class="s5" d="m205.59 158.45c0.84 6.58 6.31 13.19 15.41 18.6l2.63 1.56 20.17-20.24c2.84-2.85 6.3-5.56 10.29-8.06 3.82-2.39 7.12-4.98 9.81-7.71q0.19-0.2 0.37-0.41-1.53-3.81-2.12-7.73-0.1-0.65-0.25-1.3c-3.45 0.78-7.03 1.21-10.7 1.21-7.59 0-14.77-1.76-21.17-4.87q-3.69 3.33-8.43 6.31c-3.82 2.38-7.12 4.98-9.81 7.7-4.77 4.84-6.86 9.86-6.2 14.94z"/>
				<path class="s5" d="m288.61 116.74c-3.92 4.72-8.71 8.69-14.12 11.66 0.39 1.35 0.73 2.71 0.93 4.1 0.4 2.64 1.36 5.31 2.87 7.92 7.53 13 31.59 22.68 58.8 23.74l-8.89-15.56c-1.96-3.43-3.23-7.07-3.79-10.81-0.39-2.65-1.35-5.32-2.86-7.92q-0.54-0.92-1.18-1.81c-4.95-1.53-9.66-3.29-14.03-5.28-3.86-1.76-8.02-3.28-12.36-4.51z"/>
				<path class="s5" d="m327.19 116.11c21.85 6.15 48.25 5.38 68.77-1.62l-26.94-7.66c-4.98-1.42-9.78-3.17-14.25-5.22-4.67-2.13-9.81-3.99-15.29-5.53-12.54-3.53-26.58-4.77-40.15-3.87-0.59 4.43-1.76 8.67-3.46 12.65l1.78 0.5c4.98 1.42 9.78 3.17 14.25 5.21 4.68 2.14 9.83 4 15.29 5.54z"/>
				<path class="s6" d="m229.88 113.72c2.65 0.53 5.39 0.83 8.21 0.83 23.12 0 41.86-18.74 41.86-41.86 0-2.82-0.3-5.56-0.83-8.22-6.43-8.4-16.55-13.83-27.92-13.83-19.39 0-35.16 15.77-35.16 35.15 0 11.38 5.44 21.5 13.84 27.93z"/>
				<path class="s0" d="m238.09 114.55c-2.82 0-5.56-0.3-8.21-0.83 5.91 4.53 13.31 7.23 21.32 7.23 19.38 0 35.15-15.77 35.15-35.16 0-8.01-2.7-15.4-7.23-21.32 0.53 2.66 0.83 5.4 0.83 8.21 0 23.13-18.74 41.87-41.86 41.87z"/>
			</g>
		</g>
	</g>
</svg>